<?xml version="1.0" encoding="utf-8"?>
<!-- Generator: Adobe Illustrator 26.0.2, SVG Export Plug-In . SVG Version: 6.00 Build 0)  -->
<svg version="1.1" xmlns="http://www.w3.org/2000/svg" xmlns:xlink="http://www.w3.org/1999/xlink" x="0px" y="0px"
	 viewBox="0 0 1280 1280" style="enable-background:new 0 0 1280 1280;" xml:space="preserve">
<style type="text/css">
	.st0{fill-rule:evenodd;clip-rule:evenodd;fill:#E2004D;}
	.st1{fill-rule:evenodd;clip-rule:evenodd;fill:#FFFFFF;}
	.st2{fill-rule:evenodd;clip-rule:evenodd;fill:#E4094D;}
	.st3{fill-rule:evenodd;clip-rule:evenodd;}
	.st4{fill-rule:evenodd;clip-rule:evenodd;fill:#E3014D;}
</style>
<g id="backaground">
</g>
<g id="white">
</g>
<g id="color">
	<circle class="st2" cx="634.52" cy="448.41" r="329.22"/>
	<g>
		<path class="st1" d="M426.65,247.89l76.73-26.5c10.52-3.63,20.95-2.74,30.7,2.63c9.75,5.36,16.09,13.71,18.64,24.53l56.85,240.68
			c4.46,18.87-5.83,37.86-24.06,44.44l-31.27,11.28c-18.67,6.74-39.26-1.95-47.46-20.02L404.47,299.47
			c-4.58-10.09-4.68-20.51-0.3-30.69C408.55,258.6,416.18,251.51,426.65,247.89z"/>
		
			<ellipse transform="matrix(0.9846 -0.1745 0.1745 0.9846 -100.2981 114.2296)" class="st1" cx="599.28" cy="627.34" rx="56.4" ry="56.4"/>
		<path class="st1" d="M720.38,528.25c-1.05,0.53-10.5,4.01-20.47,7.41c-17.52,5.97-26.31,25.65-20.35,43.16l12.12,35.59
			c3.14,9.23,9.18,16.04,17.96,20.28c8.78,4.23,17.13,3.41,26.43,0.47c77.07-24.33,129.04-88.46,126.09-171.31
			c-3.03-85.2-62.99-150.53-138.87-166.65c-27.24-5.79-49.8-5.04-75.91-1.51c-5.75,0.78-14.96,2.97-18.37,7.68
			c-3.4,4.7-4.53,10.06-3.3,15.74l14.78,68.21c2.05,9.48,11.21,16.05,20.72,14.16c14.71-2.92,27.6-2.41,36.99-1.26
			c35.39,4.33,56.95,34.93,58.14,64.96C757.54,495.21,746.37,513.85,720.38,528.25z"/>
	</g>
	<g>
		<path class="st3" d="M962,1081.87c21.02,17.89,52.61,8.62,64.01-18.06c11.91-27.84,8.1-65.27-21.68-79.84
			c-19.84-9.7-72.81-3.28-73.57,3.69l0,133.48l31.24,0L962,1081.87L962,1081.87z M962.01,1055.78L962,1009.4
			c10.96-5.45,25.46-4.11,33.01,2.66c10.46,9.37,9.15,31.36,1.56,42.27C989.72,1064.18,970.15,1066.72,962.01,1055.78z"/>
		<path class="st3" d="M294.75,1088.7c62.89,7.33,88.69,0.13,97.38-31.23c10.09-36.39-10.29-93.62-68.16-67.22v-35.52l-29.22,0
			L294.75,1088.7L294.75,1088.7z M323.96,1014.65c22.36-15.27,43.26,4.02,42.62,23.35c-1.06,31.87-41.11,28.63-42.62,23.34V1014.65z
			"/>
		<path class="st3" d="M594.72,1036.62l39.37-52.28l-32.44,0l-30.7,42.54c-0.54,0.75-1.46,1.05-2.34,0.77
			c-0.88-0.28-1.45-1.07-1.45-1.99l-0.01-70.91l-30.5-0.01l-0.02,137.27l30.52,0l0-40.54c0-0.92,0.56-1.7,1.43-1.99
			c0.87-0.29,1.79,0,2.34,0.73l31.24,41.8h33.73l-41.15-52.85C594.15,1038.42,594.14,1037.39,594.72,1036.62z"/>
		<path class="st3" d="M705.66,1037.75l-0.08,20.39c-0.05,4.59-11.29,11.97-24.08,8.28C663.4,1061.21,668.75,1032.39,705.66,1037.75
			L705.66,1037.75z M740,1088.74l3.53-18.25c-5.85-1.86-10.79-4.63-10.58-11.8c1.13-37.55,6.75-56.62-12.89-70.01
			c-11.57-7.89-31.26-9.97-69.47-1.57l6.2,20.86c9.99-1.16,50.41-11.44,50.07,10.35c-18.9-0.55-38.99,0.12-55.21,12.11
			c-18.69,13.81-15.74,43.44,1.68,55.67c11.79,8.27,35.73,9.12,53.18-6.89C716,1091.13,731.33,1092.84,740,1088.74z"/>
		<path class="st3" d="M518.65,1069.95c-7.26-1.32-9.3-3.52-9.3-11.09l0.02-74.51l-29.05,0l0,68.49c0,8.66-8.93,13.41-17.09,13.53
			c-10.38,0.16-20.54-6.74-20.58-17.89l-0.01-64.13l-28.73,0l0,72.57c1.46,26.89,28.26,48.14,67.97,24.02
			c9.67,10.79,21.9,10.21,33.29,8.53L518.65,1069.95z"/>
		<rect x="761.3" y="954.48" class="st3" width="29.99" height="137.17"/>
		<path class="st3" d="M875.63,1037.75l-0.08,20.39c-0.05,4.59-11.29,11.97-24.08,8.28
			C833.37,1061.21,838.72,1032.39,875.63,1037.75L875.63,1037.75z M909.97,1088.74l3.53-18.25c-5.85-1.86-10.79-4.63-10.58-11.8
			c1.13-37.55,6.75-56.62-12.89-70.01c-11.57-7.89-31.26-9.97-69.46-1.57l6.2,20.86c9.99-1.16,50.41-11.44,50.07,10.35
			c-18.9-0.55-38.99,0.12-55.21,12.11c-18.69,13.81-15.74,43.44,1.68,55.67c11.79,8.27,35.73,9.12,53.18-6.89
			C885.97,1091.13,901.3,1092.84,909.97,1088.74z"/>
		<path class="st3" d="M1109.45,1037.75l-0.08,20.39c-0.05,4.59-11.29,11.97-24.08,8.28
			C1067.18,1061.21,1072.54,1032.39,1109.45,1037.75L1109.45,1037.75z M1143.79,1088.74l3.53-18.25
			c-5.85-1.86-10.79-4.63-10.58-11.8c1.13-37.55,6.75-56.62-12.89-70.01c-11.57-7.89-31.26-9.97-69.46-1.57l6.2,20.86
			c9.99-1.16,50.41-11.44,50.07,10.35c-18.9-0.55-38.99,0.12-55.21,12.11c-18.69,13.81-15.74,43.44,1.68,55.67
			c11.79,8.27,35.73,9.12,53.18-6.89C1119.79,1091.13,1135.12,1092.84,1143.79,1088.74z"/>
		<path class="st3" d="M1222.83,1036.62l39.37-52.28l-32.43,0l-30.7,42.54c-0.54,0.75-1.46,1.05-2.34,0.77
			c-0.88-0.28-1.45-1.07-1.45-1.99l-0.01-70.91l-30.5-0.01l-0.02,137.27l30.52,0l0-40.54c0-0.92,0.56-1.7,1.43-1.99
			c0.87-0.29,1.79,0,2.34,0.73l31.24,41.8H1264l-41.15-52.85C1222.26,1038.42,1222.25,1037.39,1222.83,1036.62z"/>
	</g>
	<g>
		<path class="st4" d="M42.27,933.46l31.21-10.33c4.28-1.42,8.5-1,12.42,1.22c3.92,2.22,6.44,5.63,7.42,10.03l21.77,97.76
			c1.71,7.67-2.56,15.3-9.98,17.87l-12.72,4.41c-7.6,2.63-15.89-0.99-19.12-8.36l-40.26-91.83c-1.8-4.11-1.79-8.33,0.04-12.43
			C34.88,937.7,38.01,934.87,42.27,933.46z"/>
		
			<ellipse transform="matrix(0.9255 -0.3788 0.3788 0.9255 -406.2911 123.8603)" class="st4" cx="111.63" cy="1094.46" rx="25.92" ry="25.92"/>
		<path class="st4" d="M165.2,1051.8c-0.41,0.24-4.17,1.83-8.14,3.39c-6.97,2.76-10.15,10.89-7.39,17.85l5.59,14.16
			c1.45,3.67,4.02,6.31,7.66,7.85c3.64,1.54,7,1.05,10.7-0.32c30.7-11.34,50.48-38.29,47.67-71.75
			c-2.88-34.4-28.41-59.67-59.41-64.71c-11.13-1.81-20.24-1.07-30.74,0.87c-2.31,0.43-5.99,1.49-7.28,3.46
			c-1.29,1.97-1.64,4.16-1.03,6.43l7.3,27.3c1.02,3.8,4.85,6.27,8.66,5.33c5.89-1.47,11.12-1.51,14.94-1.23
			c14.4,1.06,23.71,13.02,24.78,25.15C179.59,1037.71,175.43,1045.47,165.2,1051.8z"/>
	</g>
</g>
</svg>
